HIERARCHY
ROOT ui
{
	 OFFSET 0 0 0
	 CHANNELS 3 XPosition YPosition Z Position
	 EndSite
	 {
	 OFFSET 0 -1 0
	 }
}
ROOT li
{
	 OFFSET 0 0 0
	 CHANNELS 3 XPosition YPosition Z Position
	 EndSite
	 {
	 OFFSET 0 -1 0
	 }
}
ROOT ul
{
	 OFFSET 0 0 0
	 CHANNELS 3 XPosition YPosition Z Position
	 EndSite
	 {
	 OFFSET 0 -1 0
	 }
}
ROOT ll
{
	 OFFSET 0 0 0
	 CHANNELS 3 XPosition YPosition Z Position
	 EndSite
	 {
	 OFFSET 0 -1 0
	 }
}
ROOT tt
{
	 OFFSET 0 0 0
	 CHANNELS 3 XPosition YPosition Z Position
	 EndSite
	 {
	 OFFSET 0 -1 0
	 }
}
ROOT tb
{
	 OFFSET 0 0 0
	 CHANNELS 3 XPosition YPosition Z Position
	 EndSite
	 {
	 OFFSET 0 -1 0
	 }
}
ROOT td
{
	 OFFSET 0 0 0
	 CHANNELS 3 XPosition YPosition Z Position
	 EndSite
	 {
	 OFFSET 0 -1 0
	 }
}
ROOT v
{
	 OFFSET 0 0 0
	 CHANNELS 3 XPosition YPosition Z Position
	 EndSite
	 {
	 OFFSET 0 -1 0
	 }
}
ROOT bn
{
	 OFFSET 0 0 0
	 CHANNELS 3 XPosition YPosition Z Position
	 EndSite
	 {
	 OFFSET 0 -1 0
	 }
}
MOTION
Frames: 21
Frame Time: 0.002
-0.0183076114654541	-7.455710172653198E-4	0		0.5282553100585937	-2.575523681640625	0		-0.9958438110351563	0.18474574279785155	0		-0.458297607421875	-2.753942626953125	0		2.0290078125	-0.7900393676757812	0		3.519752197265625	-0.38354815673828124	0		4.69026123046875	-0.3546789245605469	0		5.8087705078125	0.2549622039794922	0		-0.19192042541503906	5.90520849609375	0		
0.0045614118576049805	-0.004374714851379394	0		0.5283200073242188	-2.575804931640625	0		-0.9571793823242187	0.16684049987792968	0		-0.49594430541992185	-2.7337626953125	0		2.029776611328125	-0.731237548828125	0		3.51604443359375	-0.35760015869140627	0		4.67333349609375	-0.3444817504882812	0		5.80866748046875	0.2549932098388672	0		-0.07323145294189454	5.91325048828125	0		
-0.022538742065429686	-0.004355329036712647	0		0.4928734741210937	-2.53963330078125	0		-0.9932894287109375	0.1669226379394531	0		-0.464701416015625	-2.721568359375	0		2.034374755859375	-0.6835194091796875	0		3.46539208984375	-0.3260359802246094	0		4.66737548828125	-0.3354578247070312	0		5.79879541015625	0.2731419982910156	0		-0.20797895812988282	5.893728515625	0		
0.0043442268371582035	-0.005108163833618164	0		0.534525634765625	-2.569553955078125	0		-0.9884835205078125	0.16140626525878907	0		-0.5223755493164063	-2.70219580078125	0		1.976880859375	-0.6409866333007812	0		3.462638671875	-0.3011564025878906	0		4.6514609375	-0.32232223510742186	0		5.79941796875	0.25512286376953125	0		-0.24058282470703124	5.8857666015625	0		
-0.01163992691040039	0.004692439079284668	0		0.4522593078613281	-2.518815185546875	0		-0.9735762939453125	0.16372206115722657	0		-0.4850499267578125	-2.6831484375	0		1.9855185546875	-0.588383544921875	0		3.46784814453125	-0.2784111938476562	0		4.632701171875	-0.2971734313964844	0		5.81238720703125	0.2629165954589844	0		-0.22498866271972656	5.8931181640625	0		
0.006250876903533936	0.005006961822509766	0		0.5082628173828125	-2.52298046875	0		-0.9887470703125	0.16041641235351561	0		-0.5227306518554687	-2.664113525390625	0		1.9821243896484375	-0.537642822265625	0		3.43032861328125	-0.2351121368408203	0		4.61881689453125	-0.2811165771484375	0		5.79838427734375	0.2730534973144531	0		-0.19338813781738282	5.90122900390625	0		
-0.011873448371887207	0.0037828259468078614	0		0.5062957458496093	-2.525384765625	0		-0.9888701782226562	0.15988334655761718	0		-0.4795849914550781	-2.659191162109375	0		1.93750830078125	-0.5033739318847656	0		3.405435546875	-0.2200108642578125	0		4.60875146484375	-0.2791341552734375	0		5.80801171875	0.25485009765625	0		-0.20903463745117187	5.89095166015625	0		
0.003896629095077515	-0.006916822910308838	0		0.48144329833984373	-2.520503662109375	0		-0.9930158081054687	0.1563824005126953	0		-0.5521974487304687	-2.636739990234375	0		1.9179959716796875	-0.4624643249511719	0		3.40268896484375	-0.1952254180908203	0		4.58389111328125	-0.26297198486328127	0		5.7981396484375	0.2728946838378906	0		-0.07625338745117187	5.9106767578125	0		
0.0019349210262298584	6.044099926948547E-4	0		0.48560232543945314	-2.517028564453125	0		-0.9831091918945313	0.15467622375488282	0		-0.54293798828125	-2.6264033203125	0		1.8905321044921874	-0.41946878051757813	0		3.39588671875	-0.1764031982421875	0		4.57005419921875	-0.2469748077392578	0		5.79393359375	0.26384567260742187	0		-0.22894364929199218	5.89518310546875	0		
0.013927648544311524	0.0019256199598312379	0		0.46487841796875	-2.5072392578125	0		-0.9831524658203125	0.15408738708496095	0		-0.5306307983398437	-2.615120849609375	0		1.9081470947265624	-0.37308612060546875	0		3.3823818359375	-0.1375064239501953	0		4.5562509765625	-0.23099441528320314	0		5.8208671875	0.2623719482421875	0		-0.22839926147460937	5.89363330078125	0		
0.010886598587036132	-0.002566962003707886	0		0.5022439270019531	-2.494226806640625	0		-0.98315185546875	0.1534860076904297	0		-0.5352410888671875	-2.60062646484375	0		1.9105906982421874	-0.34251605224609377	0		3.34768115234375	-0.11634797668457031	0		4.52739892578125	-0.22183229064941407	0		5.80599267578125	0.27243795776367186	0		-0.24393937683105468	5.8822822265625	0		
0.009052173614501953	0.00491611385345459	0		0.4505724182128906	-2.487057373046875	0		-0.9871534423828126	0.14892770385742188	0		-0.5058729858398437	-2.591585693359375	0		1.90914501953125	-0.3069044189453125	0		3.359062255859375	-0.0928059310913086	0		4.50959423828125	-0.21282923889160157	0		5.80603466796875	0.2722950134277344	0		-0.07791964721679688	5.9085537109375	0		
0.003984041929244995	-0.009567272186279297	0		0.5047865600585938	-2.493277099609375	0		-0.9870501098632812	0.14831008911132812	0		-0.5473839721679687	-2.57662646484375	0		1.9036954345703125	-0.2752487487792969	0		3.329457275390625	-0.07173863220214843	0		4.50000830078125	-0.1909429626464844	0		5.80612939453125	0.27214202880859373	0		-0.21148460388183593	5.8877265625	0		
0.014280065536499024	-2.509309947490692E-4	0		0.427283203125	-2.480790771484375	0		-0.9828417358398438	0.15163760375976562	0		-0.5389276123046876	-2.568321533203125	0		1.8822056884765626	-0.2503923645019531	0		3.288981201171875	-0.04454093551635742	0		4.492279296875	-0.18409080505371095	0		5.81138134765625	0.27991427612304687	0		-0.19659951782226562	5.8959638671875	0		
0.014499405860900878	-8.040519952774048E-4	0		0.48768646240234376	-2.480087890625	0		-0.9626597290039063	0.14876211547851562	0		-0.5643702392578125	-2.555578125	0		1.8580345458984375	-0.20450523376464844	0		3.325483154296875	-0.023342979431152343	0		4.47976904296875	-0.16418402099609375	0		5.819787109375	0.2956383666992187	0		-0.22886814880371092	5.88780859375	0		
0.013869180679321289	0.006659112930297852	0		0.45428024291992186	-2.467173095703125	0		-0.96833740234375	0.15322740173339844	0		-0.49098489379882815	-2.5600966796875	0		1.85831494140625	-0.20493716430664063	0		3.277114013671875	0.004942381858825683	0		4.4771748046875	-0.15441195678710937	0		5.8198310546875	0.27945928955078125	0		-0.23092327880859376	5.89126953125	0		
0.010126082420349122	0.002169519901275635	0		0.47078762817382813	-2.46389111328125	0		-0.9712039794921875	0.1396661376953125	0		-0.5693115234375	-2.543664306640625	0		1.8555845947265626	-0.20932740783691406	0		3.243627685546875	0.02103113555908203	0		4.4535068359375	-0.1533762969970703	0		5.8201220703125	0.279271240234375	0		-0.21203851318359376	5.88547216796875	0		
-0.015521284103393554	0.0029692060947418214	0		0.4183609313964844	-2.456723388671875	0		-0.9668236694335938	0.14302890014648437	0		-0.5298169555664063	-2.543721435546875	0		1.8518717041015624	-0.21469921875	0		3.25319189453125	0.03857304763793945	0		4.4520439453125	-0.13862490844726563	0		5.82045654296875	0.2800774230957031	0		-0.19691519165039062	5.8947392578125	0		
0.007782854080200195	-0.0018374119997024536	0		0.42291458129882814	-2.452267333984375	0		-1.0304698486328125	0.14326707458496094	0		-0.5852916259765625	-2.541560302734375	0		1.8481898193359374	-0.21906324768066407	0		3.228724853515625	0.05254904556274414	0		4.448572265625	-0.12584809112548828	0		5.81688623046875	0.2869295349121094	0		-0.1968809509277344	5.89421240234375	0		
-0.014801085472106934	0.001951658010482788	0		0.4185682067871094	-2.43968359375	0		-1.0201266479492188	0.14158871459960937	0		-0.5186892700195312	-2.533919921875	0		1.8455150146484376	-0.22343013000488282	0		3.224412841796875	0.07827587127685547	0		4.44305615234375	-0.11704467010498047	0		5.83034765625	0.2955646667480469	0		-0.19682000732421875	5.8937021484375	0		
0.011545147895812988	1.4395099878311158E-4	0		0.4391444091796875	-2.432396240234375	0		-1.0257220458984375	0.14513284301757812	0		-0.5511419067382812	-2.52901416015625	0		1.8387745361328125	-0.2327352752685547	0		3.205859130859375	0.08518562316894532	0		4.41762451171875	-0.10098969268798828	0		5.82580712890625	0.30442385864257815	0		-0.2308011932373047	5.88863671875	0		
